<svg width="16" height="17" viewBox="0 0 16 17" fill="none" xmlns="http://www.w3.org/2000/svg">
<path d="M8 7.33008V10.4283H12.3054C12.1164 11.4246 11.549 12.2683 10.6981 12.8356L13.2945 14.8501C14.8072 13.4538 15.68 11.4029 15.68 8.96652C15.68 8.39926 15.6291 7.85375 15.5345 7.33017L8 7.33008Z" fill="white"/>
<path d="M3.51771 10.3086L2.93214 10.7568L0.859375 12.3714C2.17574 14.9822 4.87372 16.7859 8.00096 16.7859C10.1609 16.7859 11.9718 16.0732 13.2955 14.8514L10.6991 12.8368C9.98638 13.3168 9.07728 13.6078 8.00096 13.6078C5.92098 13.6078 4.15376 12.2041 3.52098 10.3132L3.51771 10.3086Z" fill="white"/>
<path d="M0.858119 5.19922C0.312695 6.27554 0 7.4901 0 8.78462C0 10.0791 0.312695 11.2937 0.858119 12.37C0.858119 12.3773 3.51998 10.3046 3.51998 10.3046C3.35998 9.82458 3.26541 9.31552 3.26541 8.78454C3.26541 8.25356 3.35998 7.7445 3.51998 7.26451L0.858119 5.19922Z" fill="white"/>
<path d="M8.00113 3.97061C9.17933 3.97061 10.2266 4.37787 11.0629 5.16334L13.3538 2.87246C11.9647 1.57793 10.1612 0.785156 8.00113 0.785156C4.87388 0.785156 2.17574 2.58152 0.859375 5.19971L3.52116 7.26516C4.15385 5.37423 5.92114 3.97061 8.00113 3.97061Z" fill="white"/>
</svg>
