<svg width="48" height="21" viewBox="0 0 48 21" fill="none" xmlns="http://www.w3.org/2000/svg">
<path d="M40.1429 11.5188C38.9637 11.5188 37.9108 11.2731 36.9842 10.7817C36.0717 10.2763 35.3557 9.58844 34.8363 8.71804C34.3168 7.84764 34.0571 6.85791 34.0571 5.74885C34.0571 4.62575 34.3168 3.63603 34.8363 2.77966C35.3557 1.90926 36.0717 1.22839 36.9842 0.737033C37.9108 0.245678 38.9637 0 40.1429 0C41.2379 0 42.1996 0.22462 43.0279 0.673858C43.8702 1.10906 44.509 1.75484 44.9441 2.6112L42.9226 3.79045C42.5856 3.25698 42.1715 2.8639 41.6801 2.6112C41.2028 2.3585 40.6834 2.23216 40.1219 2.23216C39.4761 2.23216 38.8935 2.37254 38.374 2.65332C37.8546 2.93409 37.4475 3.34121 37.1527 3.87468C36.8579 4.39412 36.7104 5.01884 36.7104 5.74885C36.7104 6.47886 36.8579 7.11061 37.1527 7.64408C37.4475 8.16351 37.8546 8.56361 38.374 8.84439C38.8935 9.12516 39.4761 9.26555 40.1219 9.26555C40.6834 9.26555 41.2028 9.1392 41.6801 8.8865C42.1715 8.63381 42.5856 8.24072 42.9226 7.70725L44.9441 8.8865C44.509 9.72883 43.8702 10.3816 43.0279 10.8449C42.1996 11.2941 41.2379 11.5188 40.1429 11.5188Z" fill="#292524"/>
<path d="M28.4928 11.5188C27.3135 11.5188 26.2606 11.2731 25.3341 10.7817C24.4215 10.2763 23.7056 9.58844 23.1861 8.71804C22.6667 7.84764 22.407 6.85791 22.407 5.74885C22.407 4.62575 22.6667 3.63603 23.1861 2.77966C23.7056 1.90926 24.4215 1.22839 25.3341 0.737033C26.2606 0.245678 27.3135 0 28.4928 0C29.5878 0 30.5494 0.22462 31.3777 0.673858C32.22 1.10906 32.8588 1.75484 33.294 2.6112L31.2724 3.79045C30.9355 3.25698 30.5214 2.8639 30.03 2.6112C29.5527 2.3585 29.0333 2.23216 28.4717 2.23216C27.8259 2.23216 27.2433 2.37254 26.7239 2.65332C26.2045 2.93409 25.7973 3.34121 25.5025 3.87468C25.2077 4.39412 25.0603 5.01884 25.0603 5.74885C25.0603 6.47886 25.2077 7.11061 25.5025 7.64408C25.7973 8.16351 26.2045 8.56361 26.7239 8.84439C27.2433 9.12516 27.8259 9.26555 28.4717 9.26555C29.0333 9.26555 29.5527 9.1392 30.03 8.8865C30.5214 8.63381 30.9355 8.24072 31.2724 7.70725L33.294 8.8865C32.8588 9.72883 32.22 10.3816 31.3777 10.8449C30.5494 11.2941 29.5878 11.5188 28.4928 11.5188Z" fill="#292524"/>
<path d="M15.9406 11.5188C14.6912 11.5188 13.5962 11.2731 12.6556 10.7817C11.729 10.2763 11.006 9.58844 10.4866 8.71804C9.98121 7.84764 9.72852 6.85791 9.72852 5.74885C9.72852 4.62575 9.97419 3.63603 10.4655 2.77966C10.9709 1.90926 11.6588 1.22839 12.5292 0.737033C13.4137 0.245678 14.4174 0 15.5405 0C16.6356 0 17.6113 0.238658 18.4676 0.715974C19.324 1.19329 19.9978 1.86715 20.4892 2.73755C20.9805 3.60795 21.2262 4.63277 21.2262 5.81203C21.2262 5.92434 21.2192 6.05068 21.2052 6.19107C21.2052 6.33146 21.1981 6.46483 21.1841 6.59117H11.8133V4.84336H19.7943L18.7624 5.39087C18.7765 4.74508 18.6431 4.17652 18.3623 3.68516C18.0815 3.19381 17.6955 2.80774 17.2041 2.52697C16.7268 2.24619 16.1723 2.10581 15.5405 2.10581C14.8948 2.10581 14.3262 2.24619 13.8348 2.52697C13.3575 2.80774 12.9785 3.20083 12.6977 3.70622C12.431 4.19757 12.2976 4.78018 12.2976 5.45404V5.8752C12.2976 6.54906 12.452 7.1457 12.7609 7.66514C13.0697 8.18457 13.5049 8.58467 14.0665 8.86545C14.628 9.14622 15.2738 9.28661 16.0038 9.28661C16.6356 9.28661 17.2041 9.18834 17.7095 8.99179C18.2149 8.79525 18.6642 8.4864 19.0572 8.06524L20.4681 9.68671C19.9627 10.2763 19.324 10.7326 18.5518 11.0555C17.7938 11.3643 16.9234 11.5188 15.9406 11.5188Z" fill="#292524"/>
<path d="M2.43921 11.3714V0.126348H4.94512V3.22188L4.65031 2.31639C4.98723 1.5583 5.51369 0.98271 6.22966 0.589626C6.95967 0.196542 7.86517 0 8.94615 0V2.50591C8.83384 2.47783 8.72855 2.46379 8.63028 2.46379C8.53201 2.44975 8.43374 2.44274 8.33547 2.44274C7.33872 2.44274 6.54553 2.73755 5.95591 3.32717C5.36628 3.90276 5.07147 4.76614 5.07147 5.91732V11.3714H2.43921Z" fill="#292524"/>
<path fill-rule="evenodd" clip-rule="evenodd" d="M23.5769 18.535C22.6301 17.6233 22.2601 17.3733 21.6752 17.3905C21.1054 17.4073 20.74 17.6776 19.8275 18.5737C19.7988 18.602 19.7692 18.6311 19.739 18.661C18.9425 19.4463 17.6262 20.7443 15.4773 20.7844C13.2231 20.8266 11.8862 19.476 11.0852 18.6668C11.0614 18.6429 11.0382 18.6194 11.0154 18.5964C10.1076 17.6818 9.75454 17.4071 9.16174 17.3906C8.55118 17.3737 8.21141 17.6166 7.31052 18.5233C7.27994 18.5541 7.24854 18.5858 7.2163 18.6184C6.40479 19.439 5.05874 20.8001 2.77032 20.7847C1.76355 20.778 0.953359 19.9942 0.960001 19.002C0.966647 18.0094 1.78873 17.2369 2.79549 17.2437C3.42429 17.2479 3.77567 16.9815 4.6871 16.0642C4.71213 16.039 4.73769 16.0132 4.7638 15.9868C5.58354 15.1593 6.94349 13.7864 9.26595 13.8509C11.4435 13.9114 12.7493 15.2355 13.5329 16.0301C13.5698 16.0676 13.6056 16.1038 13.6402 16.1387C14.5254 17.0306 14.8545 17.2543 15.4071 17.244C15.9678 17.2335 16.328 16.9747 17.2353 16.0837C17.2669 16.0526 17.2994 16.0205 17.3328 15.9875C18.1253 15.2055 19.4341 13.9137 21.5648 13.851C23.8289 13.7844 25.2215 15.1295 26.0632 15.9425C26.0906 15.969 26.1175 15.995 26.1438 16.0203C27.108 16.9487 27.4974 17.2394 28.1146 17.2437C28.7079 17.2478 29.0344 17.0052 29.9152 16.0985C29.942 16.071 29.9694 16.0426 29.9974 16.0136C30.7895 15.1951 32.114 13.8264 34.4003 13.8503C36.5894 13.8732 37.9537 15.1686 38.7926 15.9651C38.8268 15.9976 38.8602 16.0292 38.8927 16.06C39.825 16.9412 40.225 17.2311 40.8224 17.2432C40.8463 17.2366 40.9098 17.217 41.0181 17.1649C41.218 17.0687 41.4808 16.9053 41.8015 16.6613C42.4439 16.1725 43.1621 15.4813 43.8663 14.7267C44.5424 14.0021 45.6952 13.9471 46.4412 14.6038C47.1872 15.2605 47.2438 16.3802 46.5677 17.1047C45.8034 17.9238 44.9266 18.7818 44.0498 19.4489C43.611 19.7828 43.1332 20.099 42.6368 20.3379C42.1558 20.5693 41.5419 20.7848 40.8622 20.7848C38.6554 20.7847 37.2836 19.4834 36.4406 18.6836C36.4097 18.6543 36.3795 18.6257 36.35 18.5978C35.3919 17.6922 34.9898 17.3978 34.361 17.3912C33.7707 17.3851 33.4461 17.6238 32.567 18.5287C32.5394 18.5571 32.5111 18.5864 32.482 18.6164C31.6912 19.4338 30.3691 20.8005 28.0886 20.7847C25.8836 20.7694 24.5163 19.4449 23.6883 18.6427C23.65 18.6056 23.6129 18.5697 23.5769 18.535Z" fill="#FF2F00"/>
<path fill-rule="evenodd" clip-rule="evenodd" d="M26.1438 16.0203L25.886 16.288C25.8595 16.2624 25.8324 16.2363 25.805 16.2098C24.9627 15.3962 23.6709 14.1608 21.5757 14.2225C19.6032 14.2805 18.3869 15.4694 17.5939 16.252L17.5929 16.253C17.5598 16.2856 17.5273 16.3177 17.4957 16.3488C16.6029 17.2256 16.1429 17.6019 15.4141 17.6155C15.0683 17.622 14.7757 17.5504 14.4494 17.3435C14.1473 17.152 13.8166 16.844 13.3765 16.4005C13.3415 16.3652 13.3054 16.3287 13.2687 16.2914L13.2683 16.291C12.4849 15.4967 11.2721 14.2784 9.25564 14.2224C7.10536 14.1627 5.84605 15.4223 5.02781 16.2484L5.02751 16.2487C5.00154 16.2749 4.97588 16.3008 4.95071 16.3261C4.49897 16.7808 4.15618 17.1059 3.83666 17.3118C3.49346 17.5331 3.17714 17.6179 2.793 17.6153C1.97893 17.6098 1.3368 18.2294 1.33161 19.0045C1.32642 19.7796 1.95919 20.4077 2.77281 20.4131C4.89342 20.4274 6.14191 19.1763 6.95207 18.3571L6.9524 18.3568C6.98447 18.3243 7.01607 18.2924 7.04691 18.2614C7.49381 17.8116 7.83217 17.4938 8.14741 17.2959C8.48776 17.0822 8.79864 17.0088 9.17206 17.0191C9.5408 17.0294 9.84514 17.1251 10.1775 17.3481C10.4888 17.5569 10.8288 17.8809 11.2791 18.3346C11.3021 18.3578 11.3256 18.3815 11.3493 18.4054C12.1497 19.214 13.387 20.4519 15.4704 20.4129C17.4588 20.3757 18.6811 19.1822 19.478 18.3964C19.5083 18.3665 19.5381 18.3372 19.5672 18.3086C20.4638 17.428 20.9281 17.0407 21.6643 17.0191C22.0295 17.0083 22.3396 17.0858 22.6847 17.2977C23.0076 17.496 23.3636 17.8137 23.8346 18.2673C23.8711 18.3024 23.9086 18.3388 23.9468 18.3758C24.7758 19.1789 26.0475 20.3989 28.0911 20.4131C30.2015 20.4278 31.4257 19.1738 32.2149 18.358C32.2302 18.3422 32.2454 18.3266 32.2604 18.311C32.2739 18.2971 32.2873 18.2833 32.3005 18.2697C32.7363 17.8211 33.0647 17.5049 33.3699 17.3067C33.7001 17.0921 34.0015 17.0158 34.3649 17.0196C35.1597 17.028 35.6625 17.4367 36.6053 18.3277C36.635 18.3559 36.6655 18.3848 36.6963 18.414C37.5399 19.2142 38.8158 20.4131 40.8622 20.4131C41.465 20.4132 42.0216 20.2215 42.4757 20.003C42.9422 19.7785 43.3981 19.4778 43.8248 19.1532C44.6776 18.5044 45.538 17.6635 46.296 16.8512C46.8285 16.2806 46.7852 15.4017 46.1957 14.8827C45.5999 14.3582 44.6763 14.4033 44.138 14.9802C43.4275 15.7415 42.6929 16.45 42.0265 16.957C41.6937 17.2102 41.4091 17.3891 41.1793 17.4997C41.0519 17.561 40.9678 17.5886 40.9216 17.6014L40.8692 17.6159L40.8149 17.6148C40.0537 17.5993 39.5543 17.1967 38.6374 16.33C38.6046 16.299 38.5709 16.267 38.5367 16.2346C37.6973 15.4376 36.4273 14.2432 34.3964 14.2219C32.281 14.1998 31.055 15.4552 30.2645 16.2721C30.2364 16.301 30.2088 16.3296 30.1818 16.3574C29.7451 16.8069 29.416 17.1243 29.1102 17.3239C28.7795 17.5396 28.4772 17.6178 28.112 17.6153C27.3247 17.6098 26.8324 17.1993 25.886 16.288L26.1438 16.0203ZM29.9152 16.0985C29.0344 17.0052 28.7079 17.2478 28.1146 17.2437C27.4974 17.2394 27.108 16.9487 26.1438 16.0203C26.1175 15.995 26.0906 15.969 26.0632 15.9425C25.2215 15.1295 23.8289 13.7844 21.5648 13.851C19.4341 13.9137 18.1253 15.2055 17.3328 15.9875L17.3325 15.9878C17.2992 16.0207 17.2668 16.0527 17.2353 16.0837C16.328 16.9747 15.9678 17.2335 15.4071 17.244C14.8545 17.2543 14.5254 17.0306 13.6402 16.1387C13.6057 16.1039 13.57 16.0677 13.5331 16.0303L13.5329 16.0301C12.7493 15.2355 11.4435 13.9114 9.26595 13.8509C6.94349 13.7864 5.58354 15.1593 4.7638 15.9868L4.76378 15.9869C4.73768 16.0132 4.71212 16.039 4.6871 16.0642C3.77567 16.9815 3.42429 17.2479 2.79549 17.2437C1.78873 17.2369 0.966647 18.0094 0.960001 19.002C0.953359 19.9942 1.76355 20.778 2.77032 20.7847C5.05874 20.8001 6.40479 19.439 7.2163 18.6184L7.2166 18.6181C7.24873 18.5856 7.28003 18.554 7.31052 18.5233C8.21141 17.6166 8.55118 17.3737 9.16174 17.3906C9.75454 17.4071 10.1076 17.6818 11.0154 18.5964C11.0382 18.6194 11.0614 18.6429 11.0852 18.6668C11.8862 19.476 13.2231 20.8266 15.4773 20.7844C17.6262 20.7443 18.9425 19.4463 19.739 18.661C19.7692 18.6311 19.7988 18.602 19.8275 18.5737C20.74 17.6776 21.1054 17.4073 21.6752 17.3905C22.2601 17.3733 22.6301 17.6233 23.5769 18.535C23.6127 18.5695 23.6497 18.6053 23.6878 18.6423L23.6883 18.6427C24.5163 19.4449 25.8835 20.7694 28.0886 20.7847C30.3691 20.8005 31.6912 19.4338 32.482 18.6164L32.4831 18.6153C32.5118 18.5857 32.5398 18.5568 32.567 18.5287C33.4461 17.6238 33.7707 17.3851 34.361 17.3912C34.9898 17.3978 35.3919 17.6922 36.35 18.5978C36.3795 18.6257 36.4097 18.6543 36.4406 18.6836C37.2836 19.4834 38.6554 20.7847 40.8622 20.7848C41.5419 20.7848 42.1558 20.5693 42.6368 20.3379C43.1332 20.099 43.611 19.7828 44.0498 19.4489C44.9266 18.7818 45.8034 17.9238 46.5677 17.1047C47.2438 16.3802 47.1872 15.2605 46.4412 14.6038C45.6952 13.9471 44.5424 14.0021 43.8663 14.7267C43.1621 15.4813 42.4439 16.1725 41.8015 16.6613C41.4808 16.9053 41.218 17.0687 41.0181 17.1649C40.9098 17.217 40.8463 17.2366 40.8224 17.2432C40.225 17.2311 39.825 16.9412 38.8927 16.06C38.8614 16.0304 38.8293 15.9999 38.7963 15.9686L38.7926 15.9651C37.9537 15.1686 36.5894 13.8732 34.4003 13.8503C32.114 13.8264 30.7895 15.1951 29.9974 16.0136C29.9694 16.0426 29.942 16.071 29.9152 16.0985Z" fill="white"/>
</svg>
