<svg width="115" height="17" viewBox="0 0 115 17" fill="none" xmlns="http://www.w3.org/2000/svg">
<path d="M35.7501 16.6781C30.5626 16.6781 27.3751 13.4906 25.5001 11.5531L25.3126 11.3656C24.1251 10.1781 23.3126 9.4281 22.5626 8.8656C21.7501 8.3031 21.0001 8.1156 20.1251 8.0531H19.9376C19.0626 8.0531 18.3751 8.2406 17.6251 8.7406C16.8751 9.2406 16.0001 10.0531 14.8751 11.1781L14.6251 11.4281C12.5626 13.4906 9.43756 16.6781 4.06256 16.6781H4.00006C3.00006 16.6781 2.00006 16.3031 1.31256 15.6156C0.625061 14.9281 0.187563 13.9906 0.250063 12.9906C0.437563 10.3656 2.75006 9.9281 4.12506 9.3031C7.00006 8.1781 8.68756 6.7406 9.62506 5.9281C10.5626 5.1156 14.7501 0.740601 20.0001 0.740601C20.1251 0.740601 20.2501 0.740601 20.3751 0.740601C25.5626 0.865601 28.6876 4.1156 30.6251 5.9906L30.8751 6.2406C31.9376 7.3656 32.8126 8.1156 33.5626 8.6156C34.3126 9.0531 34.9376 9.3031 35.8126 9.3031H35.9376C37.7501 9.2406 38.8751 8.3031 41.0626 6.1781L41.3126 5.9281C43.3126 3.9281 46.3751 0.928101 51.4376 0.740601C51.5626 0.740601 51.6876 0.740601 51.8126 0.740601C57.0001 0.740601 60.1251 3.8031 62.1876 5.8031L62.3751 5.9906C64.8126 8.3031 66.0001 9.3031 67.8751 9.3031C68.8126 9.3031 69.5626 9.1156 70.3126 8.6156C71.0626 8.1156 71.8751 7.3656 73.0001 6.1781L73.1876 5.9906C75.0626 4.0531 78.2501 0.740601 83.5626 0.740601H83.6876C88.8751 0.803101 92.1251 3.8656 94.2501 5.8656L94.5001 6.1156C96.8126 8.3031 98.5001 9.3656 99.8751 9.3031C101.25 9.2406 102.375 8.3031 103.188 7.6781C104.75 6.4906 106.125 4.8656 108.125 2.6781C108.875 1.9281 109.875 1.4281 110.938 1.4281C111.875 1.4281 112.813 1.7406 113.5 2.3656C114.25 3.0531 114.688 3.9281 114.75 4.9281C114.813 5.9281 114.438 6.8656 113.75 7.5531C111.5 9.9906 109.375 11.9281 107.5 13.3656C106.25 14.3031 105.125 14.9906 104.063 15.5531C102.563 16.2406 101.25 16.6156 99.9376 16.6156C94.6876 16.6156 91.4376 13.5531 89.3126 11.5531L89.0626 11.3656C86.6876 9.1156 85.4376 8.1156 83.5001 8.1156H83.4376C82.5626 8.1156 81.8126 8.3031 81.0626 8.8031C80.3126 9.3031 79.5001 10.1156 78.3751 11.2406L78.1876 11.4906C76.3126 13.4281 73.1251 16.7406 67.7501 16.7406H67.6876C62.4376 16.6781 59.1251 13.4906 57.1251 11.5531L56.8126 11.3031C55.6251 10.1781 54.7501 9.3656 53.9376 8.8656C53.1876 8.3656 52.4376 8.1781 51.6251 8.1781H51.4376C49.6251 8.2406 48.5626 9.1781 46.2501 11.3656L46.0001 11.6156C44.0626 13.4906 40.8751 16.6781 35.7501 16.6781Z" fill="#E7E5E4"/>
</svg>
